<svg width="120" height="120" viewBox="0 0 120 120" xmlns="http://www.w3.org/2000/svg">
  <rect width="120" height="120" fill="#e0f7fa"/>
  <!-- 身体 -->
  <ellipse cx="60" cy="70" rx="30" ry="25" fill="#4fc3f7"/>
  <!-- 翅膀 -->
  <ellipse cx="35" cy="65" rx="15" ry="20" fill="#29b6f6"/>
  <ellipse cx="85" cy="65" rx="15" ry="20" fill="#29b6f6"/>
  <!-- 头 -->
  <circle cx="60" cy="40" r="22" fill="#4fc3f7"/>
  <!-- 头顶羽毛 -->
  <ellipse cx="60" cy="20" rx="3" ry="10" fill="#0288d1"/>
  <ellipse cx="55" cy="22" rx="2" ry="8" fill="#0288d1" transform="rotate(-15 55 22)"/>
  <ellipse cx="65" cy="22" rx="2" ry="8" fill="#0288d1" transform="rotate(15 65 22)"/>
  <!-- 眼睛 -->
  <circle cx="50" cy="38" r="6" fill="white"/>
  <circle cx="70" cy="38" r="6" fill="white"/>
  <circle cx="50" cy="39" r="3" fill="#333"/>
  <circle cx="70" cy="39" r="3" fill="#333"/>
  <!-- 嘴巴 -->
  <polygon points="60,48 50,55 60,58 70,55" fill="#ff9800"/>
  <!-- 尾巴 -->
  <polygon points="60,95 45,115 60,105 75,115" fill="#29b6f6"/>
  <!-- 脚 -->
  <line x1="50" y1="95" x2="45" y2="110" stroke="#ff9800" stroke-width="3"/>
  <line x1="70" y1="95" x2="75" y2="110" stroke="#ff9800" stroke-width="3"/>
</svg>
