<svg width="120" height="120" viewBox="0 0 120 120" xmlns="http://www.w3.org/2000/svg">
  <rect width="120" height="120" fill="#e8eaf6"/>
  <!-- 水泡 -->
  <circle cx="90" cy="25" r="5" fill="#bbdefb" opacity="0.6"/>
  <circle cx="85" cy="35" r="3" fill="#bbdefb" opacity="0.6"/>
  <circle cx="95" cy="40" r="4" fill="#bbdefb" opacity="0.6"/>
  <!-- 鱼身体 -->
  <ellipse cx="55" cy="60" rx="35" ry="22" fill="#ff7043"/>
  <!-- 鱼鳍 - 上 -->
  <path d="M45,38 Q55,20 65,38" fill="#ff5722"/>
  <!-- 鱼鳍 - 下 -->
  <path d="M45,82 Q55,100 65,82" fill="#ff5722"/>
  <!-- 鱼尾 -->
  <polygon points="90,60 110,40 105,60 110,80" fill="#ff5722"/>
  <!-- 鱼鳞纹理 -->
  <path d="M35,55 Q40,50 45,55" stroke="#e64a19" stroke-width="1.5" fill="none"/>
  <path d="M45,55 Q50,50 55,55" stroke="#e64a19" stroke-width="1.5" fill="none"/>
  <path d="M55,55 Q60,50 65,55" stroke="#e64a19" stroke-width="1.5" fill="none"/>
  <path d="M40,65 Q45,60 50,65" stroke="#e64a19" stroke-width="1.5" fill="none"/>
  <path d="M50,65 Q55,60 60,65" stroke="#e64a19" stroke-width="1.5" fill="none"/>
  <!-- 眼睛 -->
  <circle cx="35" cy="55" r="8" fill="white"/>
  <circle cx="35" cy="56" r="4" fill="#333"/>
  <circle cx="33" cy="54" r="1.5" fill="white"/>
  <!-- 嘴巴 -->
  <ellipse cx="18" cy="60" rx="4" ry="3" fill="#bf360c"/>
</svg>
